<svg width="33" height="33" viewBox="0 0 33 33" fill="none" xmlns="http://www.w3.org/2000/svg">
  <path d="M24.5 10.9268V3.96973C24.5 3.70312 24.2812 3.5 24.0077 3.5H8.99231C8.7188 3.5 8.5 3.70312 8.5 3.96973V10.9268C8.5 14.875 11.8094 18.0869 15.994 18.3281V28.5732H8.99231C8.7188 28.5732 8.5 28.7764 8.5 29.0303C8.5 29.2969 8.7188 29.5 8.99231 29.5H24.0077C24.2812 29.5 24.5 29.2969 24.5 29.0303C24.5 28.7764 24.2812 28.5732 24.0077 28.5732H17.006V18.3281C21.1906 18.0869 24.5 14.875 24.5 10.9268ZM9.49829 4.42676H23.5017V6.72461C22.941 6.88965 21.6145 7.21973 20.0419 7.21973C16.8009 7.21973 16.035 5.81055 12.753 5.81055C11.3308 5.81055 10.1821 6.11523 9.49829 6.35645V4.42676ZM9.49829 10.9268V7.34668C10.0316 7.13086 11.2214 6.7373 12.753 6.7373C15.8436 6.7373 16.2538 8.12109 20.0829 8.12109C21.1769 8.12109 22.353 7.98145 23.5017 7.67676V10.9268C23.5017 14.5195 20.3701 17.4268 16.5 17.4268C12.6299 17.4268 9.49829 14.5195 9.49829 10.9268Z" fill="#3A3B3B"/>
</svg>
